RobotoSerifTextWide-HairlineItalic 02h.ufo
<glyph name="comma" format="2">
  <advance width="221"/>
  <unicode hex="002C"/>
  <outline>
    <contour>
      <point x="29" y="-123" type="line"/>
      <point x="108" y="-84"/>
      <point x="140" y="-16"/>
      <point x="140" y="21" type="curve" smooth="yes"/>
      <point x="140" y="49"/>
      <point x="121" y="66"/>
      <point x="96" y="66" type="curve" smooth="yes"/>
      <point x="70" y="66"/>
      <point x="53" y="49"/>
      <point x="53" y="27" type="curve" smooth="yes"/>
      <point x="53" y="4"/>
      <point x="71" y="-10"/>
      <point x="91" y="-10" type="curve" smooth="yes"/>
      <point x="107" y="-10"/>
      <point x="120" y="-4"/>
      <point x="126" y="9" type="curve"/>
      <point x="120" y="7"/>
      <point x="111" y="4"/>
      <point x="111" y="3" type="curve"/>
      <point x="106" y="-26"/>
      <point x="68" y="-78"/>
      <point x="4" y="-104" type="curve"/>
    </contour>
  </outline>
</glyph>
<glyph name="hyphen" format="2">
  <advance width="493"/>
  <unicode hex="002D"/>
  <outline>
    <contour>
      <point x="103" y="335" type="line"/>
      <point x="95" y="288" type="line"/>
      <point x="401" y="288" type="line"/>
      <point x="409" y="335" type="line"/>
    </contour>
  </outline>
</glyph>
<glyph name="one" format="2">
  <advance width="652"/>
  <unicode hex="0031"/>
  <outline>
    <contour>
      <point x="351" y="64" type="curve" smooth="yes"/>
      <point x="449" y="609" type="line"/>
      <point x="424" y="609" type="line"/>
      <point x="375" y="557"/>
      <point x="286" y="535"/>
      <point x="185" y="533" type="curve"/>
      <point x="179" y="498" type="line"/>
      <point x="269.00058835019195" y="495.9999869255513"/>
      <point x="377.71269091027364" y="528.5995085415935"/>
      <point x="411" y="575" type="curve"/>
      <point x="402" y="570" type="line"/>
      <point x="311" y="64" type="line" smooth="yes"/>
      <point x="306" y="36"/>
      <point x="252.0" y="27.0"/>
      <point x="179" y="27" type="curve" smooth="yes"/>
      <point x="106" y="27" type="line"/>
      <point x="101" y="0" type="line"/>
      <point x="531" y="0" type="line"/>
      <point x="536" y="27" type="line"/>
      <point x="476" y="27" type="line" smooth="yes"/>
      <point x="388.0" y="27"/>
      <point x="346" y="35"/>
    </contour>
  </outline>
</glyph>
<glyph name="two" format="2">
  <advance width="652"/>
  <unicode hex="0032"/>
  <outline>
    <contour>
      <point x="13" y="0" type="line"/>
      <point x="20" y="44" type="line"/>
      <point x="316.40019731697714" y="182.7192842661947"/>
      <point x="538.0" y="288.0"/>
      <point x="538" y="450" type="curve" smooth="yes"/>
      <point x="538" y="548"/>
      <point x="459.4179894179894" y="588.0"/>
      <point x="350" y="588" type="curve" smooth="yes"/>
      <point x="259.0" y="588.0"/>
      <point x="192.294473520607" y="560.232181045094"/>
      <point x="140" y="519" type="curve"/>
      <point x="167.4136060466181" y="559.6127496986935"/>
      <point x="164.27777777777777" y="565.0"/>
      <point x="178" y="565" type="curve"/>
      <point x="159" y="458" type="line"/>
      <point x="110" y="458" type="line"/>
      <point x="127" y="555" type="line"/>
      <point x="168.6125821640206" y="583.0642995989906"/>
      <point x="248" y="618.0"/>
      <point x="351" y="618" type="curve" smooth="yes"/>
      <point x="482.0" y="618.0"/>
      <point x="582" y="563"/>
      <point x="582" y="447" type="curve" smooth="yes"/>
      <point x="582.0" y="272"/>
      <point x="314" y="145"/>
      <point x="52" y="28" type="curve"/>
      <point x="52" y="37" type="line"/>
      <point x="358" y="37" type="line" smooth="yes"/>
      <point x="457.3677419354839" y="37"/>
      <point x="496.5616791280725" y="44.54285261676421"/>
      <point x="509" y="81" type="curve" smooth="yes"/>
      <point x="538" y="166" type="line"/>
      <point x="565" y="166" type="line"/>
      <point x="536" y="0" type="line"/>
    </contour>
  </outline>
</glyph>
<glyph name="four" format="2">
  <advance width="652"/>
  <unicode hex="0034"/>
  <outline>
    <contour>
      <point x="33" y="112" type="line"/>
      <point x="610" y="112" type="line"/>
      <point x="617" y="147" type="line"/>
      <point x="60" y="147" type="line"/>
      <point x="60" y="124" type="line"/>
      <point x="521" y="603" type="line"/>
      <point x="520" y="609" type="line"/>
      <point x="481" y="609" type="line"/>
      <point x="40" y="151" type="line"/>
    </contour>
    <contour>
      <point x="423" y="-77" type="line"/>
      <point x="544" y="609" type="line"/>
      <point x="501" y="609" type="line"/>
      <point x="501" y="592" type="line"/>
      <point x="383" y="-77" type="line"/>
    </contour>
  </outline>
</glyph>
<glyph name="eight" format="2">
  <advance width="652"/>
  <unicode hex="0038"/>
  <outline>
    <contour>
      <point x="325" y="20" type="curve" smooth="yes"/>
      <point x="197.0" y="20.0"/>
      <point x="100.0" y="91"/>
      <point x="100" y="186" type="curve" smooth="yes"/>
      <point x="100" y="198"/>
      <point x="101" y="209"/>
      <point x="103" y="219" type="curve" smooth="yes"/>
      <point x="121" y="313"/>
      <point x="216.00448430493273" y="361.0"/>
      <point x="328" y="361" type="curve" smooth="yes"/>
      <point x="468.63063063063066" y="361.0"/>
      <point x="551.0" y="288.0"/>
      <point x="551" y="198" type="curve" smooth="yes"/>
      <point x="551" y="182"/>
      <point x="549" y="167"/>
      <point x="545" y="152" type="curve" smooth="yes"/>
      <point x="523.979771552092" y="74.92582902433729"/>
      <point x="448.68663594470047" y="20.0"/>
    </contour>
    <contour>
      <point x="373" y="391" type="curve" smooth="yes"/>
      <point x="286" y="391"/>
      <point x="198" y="444"/>
      <point x="198" y="542" type="curve" smooth="yes"/>
      <point x="198.0" y="555.6842105263158"/>
      <point x="199.9788121258157" y="568.931139408901"/>
      <point x="204" y="582" type="curve" smooth="yes"/>
      <point x="225.00010224161468" y="647.0003164621406"/>
      <point x="296" y="690"/>
      <point x="391" y="690" type="curve" smooth="yes"/>
      <point x="490.0" y="690.0"/>
      <point x="569.0" y="635.5238095238095"/>
      <point x="569" y="547" type="curve" smooth="yes"/>
      <point x="569" y="534"/>
      <point x="567" y="522"/>
      <point x="564" y="511" type="curve" smooth="yes"/>
      <point x="544.386815678337" y="436.67635414948757"/>
      <point x="466.0" y="391.0"/>
    </contour>
    <contour>
      <point x="325" y="-10" type="curve" smooth="yes"/>
      <point x="483.77067669172936" y="-10.0"/>
      <point x="594.0" y="78.99999999999999"/>
      <point x="594" y="192" type="curve" smooth="yes"/>
      <point x="594.0" y="275.0"/>
      <point x="527.8708890079432" y="354.6383996035068"/>
      <point x="407" y="378" type="curve"/>
      <point x="431" y="366" type="line"/>
      <point x="433" y="379" type="line"/>
      <point x="405" y="369" type="line"/>
      <point x="525.0173471725825" y="380.0015901574867"/>
      <point x="611.0" y="452.8636363636364"/>
      <point x="611" y="549" type="curve" smooth="yes"/>
      <point x="611.0" y="647.6914285714286"/>
      <point x="517.0" y="720.0"/>
      <point x="393" y="720" type="curve" smooth="yes"/>
      <point x="251" y="720"/>
      <point x="156.0" y="640.0"/>
      <point x="156" y="540" type="curve" smooth="yes"/>
      <point x="156.0" y="457"/>
      <point x="225" y="399"/>
      <point x="305" y="377" type="curve"/>
      <point x="280" y="391" type="line"/>
      <point x="277" y="376" type="line"/>
      <point x="309" y="387" type="line"/>
      <point x="152" y="380"/>
      <point x="57" y="294"/>
      <point x="57" y="189" type="curve" smooth="yes"/>
      <point x="57.0" y="71"/>
      <point x="174.0" y="-10.0"/>
    </contour>
  </outline>
</glyph>
<glyph name="nine" format="2">
  <advance width="652"/>
  <unicode hex="0039"/>
  <outline>
    <contour>
      <point x="333" y="619" type="curve" smooth="yes"/>
      <point x="501" y="619.0"/>
      <point x="603.0" y="513"/>
      <point x="603" y="366" type="curve" smooth="yes"/>
      <point x="603" y="171"/>
      <point x="446" y="-85"/>
      <point x="52" y="-93" type="curve"/>
      <point x="49" y="-62" type="line"/>
      <point x="327" y="-55"/>
      <point x="514.0026675366254" y="83.01437867302934"/>
      <point x="555" y="304" type="curve" smooth="yes"/>
      <point x="560" y="329"/>
      <point x="560.0" y="355"/>
      <point x="560" y="377" type="curve" smooth="yes"/>
      <point x="560.0" y="504"/>
      <point x="465.0" y="589.0"/>
      <point x="334" y="589" type="curve" smooth="yes"/>
      <point x="207.0" y="589.0"/>
      <point x="129.1152545863516" y="522.5820356610756"/>
      <point x="109" y="421" type="curve" smooth="yes"/>
      <point x="107.16214260271076" y="409.97285561626455"/>
      <point x="106" y="399"/>
      <point x="106" y="388" type="curve" smooth="yes"/>
      <point x="106.0" y="280"/>
      <point x="197.88349514563106" y="207.0"/>
      <point x="314" y="207" type="curve" smooth="yes"/>
      <point x="428.11538461538464" y="207.0"/>
      <point x="517.1263710420457" y="264.2527420840915"/>
      <point x="572" y="374" type="curve"/>
      <point x="584" y="348" type="line"/>
      <point x="534" y="240"/>
      <point x="431" y="177"/>
      <point x="314" y="177" type="curve" smooth="yes"/>
      <point x="171" y="177.0"/>
      <point x="63.0" y="263.0"/>
      <point x="63" y="390" type="curve" smooth="yes"/>
      <point x="63" y="501"/>
      <point x="155" y="619"/>
    </contour>
  </outline>
</glyph>
<glyph name="question" format="2">
  <advance width="578"/>
  <unicode hex="003F"/>
  <outline>
    <contour>
      <point x="240" y="354" type="curve"/>
      <point x="212" y="194" type="line"/>
      <point x="246" y="194" type="line"/>
      <point x="270" y="331" type="line"/>
      <point x="407.01487616295765" y="353.0023888728837"/>
      <point x="544.0" y="421"/>
      <point x="544" y="564" type="curve" smooth="yes"/>
      <point x="544" y="673"/>
      <point x="453.6" y="740.0"/>
      <point x="318" y="740" type="curve" smooth="yes"/>
      <point x="217.505" y="740.0"/>
      <point x="149.21862148830877" y="703.1384602759289"/>
      <point x="119" y="684" type="curve"/>
      <point x="102" y="589" type="line"/>
      <point x="151" y="589" type="line"/>
      <point x="167" y="685" type="line"/>
      <point x="134" y="684"/>
      <point x="136" y="657"/>
      <point x="138" y="650" type="curve"/>
      <point x="171.22407630427404" y="677.1833351580424"/>
      <point x="224.51933701657458" y="710.0"/>
      <point x="318" y="710" type="curve" smooth="yes"/>
      <point x="433.63186813186815" y="710.0"/>
      <point x="501" y="650"/>
      <point x="501" y="563" type="curve" smooth="yes"/>
      <point x="501" y="442"/>
      <point x="395" y="380"/>
    </contour>
    <component base="period" xOffset="107"/>
  </outline>
</glyph>
<glyph name="A" format="2">
  <advance width="760"/>
  <unicode hex="0041"/>
  <anchor x="374" y="721" name="top"/>
  <anchor x="567" y="0" name="right"/>
  <anchor x="374" y="0" name="bottom"/>
  <outline>
    <contour>
      <point x="204" y="298" type="line"/>
      <point x="193" y="268" type="line"/>
      <point x="550" y="268" type="line"/>
      <point x="553" y="298" type="line"/>
    </contour>
    <contour>
      <point x="443" y="693" type="line"/>
      <point x="590" y="43" type="line"/>
      <point x="588.8215432419564" y="34.75080269369516"/>
      <point x="544.2588235294118" y="30"/>
      <point x="509" y="30" type="curve" smooth="yes"/>
      <point x="489" y="30" type="line"/>
      <point x="484" y="0" type="line"/>
      <point x="698" y="0" type="line"/>
      <point x="703" y="30" type="line"/>
      <point x="696" y="30" type="line"/>
      <point x="658.5507246376811" y="30.0"/>
      <point x="633.9155579651988" y="32.979538950375506"/>
      <point x="628" y="59" type="curve" smooth="yes"/>
      <point x="480" y="710" type="line"/>
      <point x="422" y="710" type="line"/>
      <point x="54" y="73" type="line" smooth="yes"/>
      <point x="33" y="37"/>
      <point x="9" y="30"/>
      <point x="-32" y="30" type="curve"/>
      <point x="-39" y="30" type="line"/>
      <point x="-44" y="0" type="line"/>
      <point x="177" y="0" type="line"/>
      <point x="182" y="30" type="line"/>
      <point x="165" y="30" type="line" smooth="yes"/>
      <point x="126.45882352941177" y="30"/>
      <point x="78.00243004993439" y="38.008910183092766"/>
      <point x="81" y="49" type="curve"/>
      <point x="451" y="693" type="line"/>
    </contour>
  </outline>
</glyph>
<glyph name="e" format="2">
  <advance width="538"/>
  <unicode hex="0065"/>
  <anchor x="274" y="508" name="top"/>
  <anchor x="404" y="1" name="right"/>
  <anchor x="292" y="0" name="bottom"/>
  <outline>
    <contour>
      <point x="278" y="-12" type="curve" smooth="yes"/>
      <point x="382.97196261682245" y="-12.0"/>
      <point x="449.8092165073931" y="38.713824761089626"/>
      <point x="494" y="105" type="curve"/>
      <point x="469" y="123" type="line"/>
      <point x="423.8491387898066" y="56.77873689171638"/>
      <point x="368.9578947368421" y="18.0"/>
      <point x="277" y="18" type="curve" smooth="yes"/>
      <point x="168.16402116402116" y="18.0"/>
      <point x="90.0" y="85.34010152284264"/>
      <point x="90" y="216" type="curve" smooth="yes"/>
      <point x="90.0" y="370.56826568265683"/>
      <point x="190.0" y="488.0"/>
      <point x="332" y="488" type="curve" smooth="yes"/>
      <point x="410.0" y="488.0"/>
      <point x="455.0" y="449.82978723404256"/>
      <point x="455" y="396" type="curve" smooth="yes"/>
      <point x="455.0" y="296.718954248366"/>
      <point x="346.00042590688776" y="244.0000045961175"/>
      <point x="68" y="241" type="curve"/>
      <point x="61" y="216" type="line"/>
      <point x="66" y="216"/>
      <point x="71" y="216"/>
      <point x="76" y="216" type="curve" smooth="yes"/>
      <point x="349.0" y="216.0"/>
      <point x="495" y="276"/>
      <point x="495" y="395" type="curve" smooth="yes"/>
      <point x="495.0" y="463"/>
      <point x="438.0" y="518.0"/>
      <point x="331" y="518" type="curve" smooth="yes"/>
      <point x="153" y="518"/>
      <point x="47" y="368"/>
      <point x="47" y="215" type="curve" smooth="yes"/>
      <point x="47.0" y="69.0"/>
      <point x="147.13304721030042" y="-12.0"/>
    </contour>
  </outline>
</glyph>
<glyph name="yen" format="2">
  <advance width="652"/>
  <unicode hex="00A5"/>
  <outline>
    <contour>
      <point x="71" y="208" type="line"/>
      <point x="66" y="177" type="line"/>
      <point x="528" y="177" type="line"/>
      <point x="533" y="208" type="line"/>
    </contour>
    <contour>
      <point x="95" y="344" type="line"/>
      <point x="90" y="314" type="line"/>
      <point x="552" y="314" type="line"/>
      <point x="557" y="344" type="line"/>
    </contour>
    <contour>
      <point x="308" y="351" type="line"/>
      <point x="258" y="67" type="line" smooth="yes"/>
      <point x="253" y="38"/>
      <point x="208" y="31"/>
      <point x="151" y="31" type="curve" smooth="yes"/>
      <point x="135" y="31" type="line"/>
      <point x="129" y="0" type="line"/>
      <point x="404" y="0" type="line"/>
      <point x="411" y="31" type="line"/>
      <point x="390" y="31" type="line" smooth="yes"/>
      <point x="333" y="31"/>
      <point x="293" y="38"/>
      <point x="299" y="67" type="curve" smooth="yes"/>
      <point x="349" y="351" type="line"/>
    </contour>
    <contour>
      <point x="331" y="318" type="line"/>
      <point x="588" y="638" type="line" smooth="yes"/>
      <point x="618" y="675"/>
      <point x="653" y="679"/>
      <point x="693" y="679" type="curve" smooth="yes"/>
      <point x="700" y="679" type="line"/>
      <point x="706" y="710" type="line"/>
      <point x="458" y="710" type="line"/>
      <point x="451" y="679" type="line"/>
      <point x="469" y="679" type="line" smooth="yes"/>
      <point x="513" y="679"/>
      <point x="566" y="672"/>
      <point x="564" y="661" type="curve"/>
      <point x="307" y="338" type="line"/>
      <point x="340" y="348" type="line"/>
      <point x="201" y="669" type="line"/>
      <point x="202" y="676"/>
      <point x="256" y="679"/>
      <point x="299" y="679" type="curve" smooth="yes"/>
      <point x="318" y="679" type="line"/>
      <point x="325" y="710" type="line"/>
      <point x="78" y="710" type="line"/>
      <point x="72" y="679" type="line"/>
      <point x="77" y="679" type="line" smooth="yes"/>
      <point x="117" y="679"/>
      <point x="149" y="680"/>
      <point x="163" y="653" type="curve" smooth="yes"/>
      <point x="313" y="318" type="line"/>
    </contour>
  </outline>
</glyph>
<glyph name="Thorn" format="2">
  <advance width="675"/>
  <unicode hex="00DE"/>
  <outline>
    <contour>
      <point x="227" y="525" type="line"/>
      <point x="356" y="525" type="line" smooth="yes"/>
      <point x="502" y="525"/>
      <point x="587" y="476"/>
      <point x="590" y="376" type="curve" smooth="yes"/>
      <point x="594" y="267"/>
      <point x="516" y="190"/>
      <point x="361" y="190" type="curve" smooth="yes"/>
      <point x="167" y="190" type="line"/>
      <point x="162" y="159" type="line"/>
      <point x="361" y="159" type="line" smooth="yes"/>
      <point x="538" y="159"/>
      <point x="637" y="252"/>
      <point x="633" y="376" type="curve" smooth="yes"/>
      <point x="630" y="493"/>
      <point x="528" y="556"/>
      <point x="356" y="556" type="curve" smooth="yes"/>
      <point x="229" y="556" type="line"/>
    </contour>
    <contour>
      <point x="115" y="67" type="line" smooth="yes"/>
      <point x="110" y="38"/>
      <point x="68" y="31"/>
      <point x="12" y="31" type="curve" smooth="yes"/>
      <point x="-2" y="31" type="line"/>
      <point x="-8" y="0" type="line"/>
      <point x="265" y="0" type="line"/>
      <point x="272" y="31" type="line"/>
      <point x="240" y="31" type="line" smooth="yes"/>
      <point x="201" y="31"/>
      <point x="150" y="34"/>
      <point x="151" y="41" type="curve" smooth="yes"/>
      <point x="264" y="669" type="line" smooth="yes"/>
      <point x="265" y="676"/>
      <point x="314" y="679"/>
      <point x="354" y="679" type="curve" smooth="yes"/>
      <point x="385" y="679" type="line"/>
      <point x="392" y="710" type="line"/>
      <point x="119" y="710" type="line"/>
      <point x="112" y="679" type="line"/>
      <point x="125" y="679" type="line" smooth="yes"/>
      <point x="182" y="679"/>
      <point x="224" y="672"/>
      <point x="219" y="643" type="curve" smooth="yes"/>
    </contour>
  </outline>
</glyph>
<glyph name="Aogonek" format="2">
  <advance width="773"/>
  <unicode hex="0104"/>
  <outline>
    <contour>
      <point x="520" y="-233" type="curve" smooth="yes"/>
      <point x="452" y="-233"/>
      <point x="412" y="-197"/>
      <point x="410" y="-145" type="curve" smooth="yes"/>
      <point x="408" y="-74"/>
      <point x="492" y="-14"/>
      <point x="623" y="24" type="curve"/>
      <point x="638" y="2" type="line"/>
      <point x="504" y="-41"/>
      <point x="451" y="-86"/>
      <point x="452" y="-145" type="curve" smooth="yes"/>
      <point x="453" y="-180"/>
      <point x="478" y="-202"/>
      <point x="517" y="-202" type="curve" smooth="yes"/>
      <point x="558" y="-202"/>
      <point x="587" y="-184"/>
      <point x="617" y="-159" type="curve"/>
      <point x="636" y="-181" type="line"/>
      <point x="601" y="-212"/>
      <point x="565" y="-233"/>
    </contour>
    <contour>
      <point x="192" y="267" type="line"/>
      <point x="203" y="298" type="line"/>
      <point x="552" y="298" type="line"/>
      <point x="549" y="267" type="line"/>
    </contour>
    <contour>
      <point x="454" y="691" type="line"/>
      <point x="83" y="49" type="line"/>
      <point x="80" y="38"/>
      <point x="133" y="31"/>
      <point x="177" y="31" type="curve" smooth="yes"/>
      <point x="194" y="31" type="line"/>
      <point x="189" y="0" type="line"/>
      <point x="-49" y="0" type="line"/>
      <point x="-44" y="31" type="line"/>
      <point x="-37" y="31" type="line"/>
      <point x="6" y="31"/>
      <point x="30" y="37"/>
      <point x="52" y="73" type="curve" smooth="yes"/>
      <point x="419" y="710" type="line"/>
      <point x="480" y="710" type="line"/>
      <point x="629" y="59" type="line" smooth="yes"/>
      <point x="634" y="33"/>
      <point x="660" y="31"/>
      <point x="699" y="31" type="curve"/>
      <point x="706" y="31" type="line"/>
      <point x="700" y="0" type="line"/>
      <point x="595" y="0" type="line"/>
      <point x="444" y="687" type="line"/>
    </contour>
  </outline>
</glyph>
<glyph name="Schwa" format="2">
  <advance width="788"/>
  <unicode hex="018F"/>
  <outline>
    <contour>
      <point x="369" y="-11" type="curve" smooth="yes"/>
      <point x="629" y="-11"/>
      <point x="752" y="209"/>
      <point x="746" y="416" type="curve" smooth="yes"/>
      <point x="740" y="614"/>
      <point x="602" y="720"/>
      <point x="409" y="720" type="curve" smooth="yes"/>
      <point x="259" y="720"/>
      <point x="154" y="661"/>
      <point x="87" y="566" type="curve"/>
      <point x="108" y="540" type="line"/>
      <point x="164" y="625"/>
      <point x="267" y="689"/>
      <point x="410" y="689" type="curve" smooth="yes"/>
      <point x="583" y="689"/>
      <point x="698" y="604"/>
      <point x="703" y="416" type="curve" smooth="yes"/>
      <point x="709" y="223"/>
      <point x="607" y="20"/>
      <point x="368" y="20" type="curve" smooth="yes"/>
      <point x="193" y="20"/>
      <point x="101" y="96"/>
      <point x="96" y="255" type="curve" smooth="yes"/>
      <point x="95" y="287"/>
      <point x="97" y="321"/>
      <point x="103" y="356" type="curve"/>
      <point x="77" y="336" type="line"/>
      <point x="719" y="336" type="line"/>
      <point x="722" y="367" type="line"/>
      <point x="64" y="367" type="line"/>
      <point x="57" y="326"/>
      <point x="54" y="289"/>
      <point x="55" y="255" type="curve" smooth="yes"/>
      <point x="60" y="78"/>
      <point x="185" y="-11"/>
    </contour>
  </outline>
</glyph>
<glyph name="schwa" format="2">
  <advance width="534"/>
  <unicode hex="0259"/>
  <outline>
    <contour>
      <point x="260" y="518" type="curve" smooth="yes"/>
      <point x="147" y="518"/>
      <point x="75" y="466"/>
      <point x="35" y="403" type="curve"/>
      <point x="64" y="384" type="line"/>
      <point x="108" y="448"/>
      <point x="162" y="487"/>
      <point x="262" y="487" type="curve" smooth="yes"/>
      <point x="370" y="487"/>
      <point x="439" y="420"/>
      <point x="443" y="294" type="curve" smooth="yes"/>
      <point x="448" y="127"/>
      <point x="349" y="19"/>
      <point x="202" y="19" type="curve" smooth="yes"/>
      <point x="128" y="19"/>
      <point x="81" y="54"/>
      <point x="79" y="112" type="curve" smooth="yes"/>
      <point x="76" y="211"/>
      <point x="183" y="262"/>
      <point x="466" y="265" type="curve"/>
      <point x="473" y="290" type="line"/>
      <point x="185" y="292"/>
      <point x="35" y="234"/>
      <point x="38" y="112" type="curve" smooth="yes"/>
      <point x="40" y="38"/>
      <point x="102" y="-12"/>
      <point x="203" y="-12" type="curve" smooth="yes"/>
      <point x="388" y="-12"/>
      <point x="492" y="129"/>
      <point x="487" y="294" type="curve" smooth="yes"/>
      <point x="483" y="437"/>
      <point x="390" y="518"/>
    </contour>
  </outline>
</glyph>
<glyph name="quoteright" format="2">
  <advance width="220"/>
  <unicode hex="2019"/>
  <outline>
    <contour>
      <point x="118" y="520" type="line"/>
      <point x="193" y="564"/>
      <point x="234.0" y="618.3529411764706"/>
      <point x="234" y="672" type="curve" smooth="yes"/>
      <point x="234.0" y="700.6666666666666"/>
      <point x="216.0" y="715.0"/>
      <point x="193" y="715" type="curve" smooth="yes"/>
      <point x="169" y="715"/>
      <point x="156" y="699"/>
      <point x="156" y="679" type="curve" smooth="yes"/>
      <point x="157" y="661"/>
      <point x="168" y="646"/>
      <point x="189" y="646" type="curve" smooth="yes"/>
      <point x="207" y="646"/>
      <point x="217" y="653"/>
      <point x="223" y="669" type="curve"/>
      <point x="208" y="666" type="line"/>
      <point x="207.0" y="620.0"/>
      <point x="159" y="573"/>
      <point x="95" y="542" type="curve"/>
    </contour>
  </outline>
</glyph>
<glyph name="peseta" format="2">
  <advance width="652"/>
  <unicode hex="20A7"/>
  <outline>
    <contour>
      <point x="-45" y="0" type="line"/>
      <point x="175" y="0" type="line"/>
      <point x="180" y="31" type="line"/>
      <point x="150" y="31" type="line" smooth="yes"/>
      <point x="113" y="31"/>
      <point x="79" y="34"/>
      <point x="80" y="41" type="curve" smooth="yes"/>
      <point x="122" y="278" type="line"/>
      <point x="162" y="278" type="line" smooth="yes"/>
      <point x="371" y="278"/>
      <point x="436" y="406"/>
      <point x="433" y="535" type="curve" smooth="yes"/>
      <point x="430" y="636"/>
      <point x="363" y="710"/>
      <point x="200" y="710" type="curve" smooth="yes"/>
      <point x="74" y="710" type="line"/>
      <point x="70" y="679" type="line"/>
      <point x="83" y="679" type="line" smooth="yes"/>
      <point x="125" y="679"/>
      <point x="151" y="672"/>
      <point x="146" y="643" type="curve" smooth="yes"/>
      <point x="44" y="67" type="line" smooth="yes"/>
      <point x="38" y="38"/>
      <point x="11" y="31"/>
      <point x="-31" y="31" type="curve" smooth="yes"/>
      <point x="-40" y="31" type="line"/>
    </contour>
    <contour>
      <point x="204" y="679" type="line" smooth="yes"/>
      <point x="339" y="679"/>
      <point x="389" y="621"/>
      <point x="392" y="535" type="curve" smooth="yes"/>
      <point x="392" y="519"/>
      <point x="391" y="499"/>
      <point x="388" y="481" type="curve" smooth="yes"/>
      <point x="368" y="368"/>
      <point x="303" y="309"/>
      <point x="157" y="309" type="curve" smooth="yes"/>
      <point x="128" y="309" type="line"/>
      <point x="193" y="679" type="line"/>
    </contour>
    <contour>
      <point x="503" y="496" type="line"/>
      <point x="446" y="163" type="line" smooth="yes"/>
      <point x="440" y="129"/>
      <point x="437" y="106"/>
      <point x="438" y="82" type="curve" smooth="yes"/>
      <point x="440" y="13"/>
      <point x="483" y="-11"/>
      <point x="535" y="-11" type="curve" smooth="yes"/>
      <point x="573" y="-11"/>
      <point x="601" y="-2"/>
      <point x="619" y="6" type="curve"/>
      <point x="623" y="38" type="line"/>
      <point x="620" y="37"/>
      <point x="580" y="22"/>
      <point x="540" y="22" type="curve" smooth="yes"/>
      <point x="507" y="22"/>
      <point x="480" y="38"/>
      <point x="479" y="82" type="curve" smooth="yes"/>
      <point x="478" y="106"/>
      <point x="482" y="129"/>
      <point x="488" y="161" type="curve" smooth="yes"/>
      <point x="572" y="648" type="line"/>
      <point x="535" y="648" type="line"/>
      <point x="518" y="552" type="line" smooth="yes"/>
      <point x="511" y="506"/>
      <point x="479" y="503"/>
      <point x="422" y="503" type="curve" smooth="yes"/>
      <point x="403" y="503" type="line"/>
      <point x="400" y="477" type="line"/>
      <point x="692" y="477" type="line"/>
      <point x="696" y="508" type="line"/>
      <point x="549" y="508" type="line"/>
    </contour>
  </outline>
</glyph>
<glyph name="guarani" format="2">
  <advance width="651"/>
  <unicode hex="20B2"/>
  <outline>
    <contour>
      <point x="385" y="790" type="line"/>
      <point x="368" y="684" type="line"/>
      <point x="367" y="680" type="line"/>
      <point x="251" y="30" type="line"/>
      <point x="250" y="25" type="line"/>
      <point x="225" y="-120" type="line"/>
      <point x="264" y="-120" type="line"/>
      <point x="289" y="21" type="line"/>
      <point x="290" y="28" type="line"/>
      <point x="406" y="679" type="line"/>
      <point x="407" y="686" type="line"/>
      <point x="425" y="790" type="line"/>
    </contour>
    <contour>
      <point x="312" y="10" type="curve" smooth="yes"/>
      <point x="409" y="10"/>
      <point x="477" y="53"/>
      <point x="518" y="90" type="curve"/>
      <point x="554" y="287" type="line" smooth="yes"/>
      <point x="560" y="317"/>
      <point x="587" y="323"/>
      <point x="625" y="323" type="curve" smooth="yes"/>
      <point x="630" y="323" type="line"/>
      <point x="634" y="353" type="line"/>
      <point x="442" y="353" type="line"/>
      <point x="438" y="323" type="line"/>
      <point x="447" y="323" type="line" smooth="yes"/>
      <point x="492" y="323"/>
      <point x="525" y="317"/>
      <point x="520" y="287" type="curve" smooth="yes"/>
      <point x="487" y="100" type="line"/>
      <point x="460" y="81"/>
      <point x="410" y="41"/>
      <point x="310" y="41" type="curve" smooth="yes"/>
      <point x="185" y="41"/>
      <point x="92" y="111"/>
      <point x="87" y="278" type="curve" smooth="yes"/>
      <point x="86" y="306"/>
      <point x="88" y="347"/>
      <point x="96" y="384" type="curve" smooth="yes"/>
      <point x="130" y="571"/>
      <point x="246" y="669"/>
      <point x="399" y="669" type="curve" smooth="yes"/>
      <point x="507" y="669"/>
      <point x="566" y="633"/>
      <point x="587" y="598" type="curve"/>
      <point x="595" y="599"/>
      <point x="601" y="634"/>
      <point x="565" y="638" type="curve"/>
      <point x="549" y="542" type="line"/>
      <point x="599" y="542" type="line"/>
      <point x="615" y="634" type="line"/>
      <point x="594" y="656"/>
      <point x="519" y="700"/>
      <point x="397" y="700" type="curve" smooth="yes"/>
      <point x="174" y="700"/>
      <point x="37" y="514"/>
      <point x="44" y="278" type="curve" smooth="yes"/>
      <point x="49" y="102"/>
      <point x="162" y="10"/>
    </contour>
  </outline>
</glyph>
<glyph name="ruble" format="2">
  <advance width="654"/>
  <unicode hex="20BD"/>
  <outline>
    <contour>
      <point x="414" y="187" type="line"/>
      <point x="30" y="187" type="line"/>
      <point x="36" y="217" type="line"/>
      <point x="419" y="217" type="line"/>
    </contour>
    <contour>
      <point x="63" y="375" type="line"/>
      <point x="372" y="375" type="line" smooth="yes"/>
      <point x="501" y="375"/>
      <point x="571" y="409"/>
      <point x="599" y="467" type="curve" smooth="yes"/>
      <point x="610" y="491"/>
      <point x="616" y="518"/>
      <point x="615" y="548" type="curve" smooth="yes"/>
      <point x="613" y="628"/>
      <point x="548" y="679"/>
      <point x="391" y="679" type="curve" smooth="yes"/>
      <point x="269" y="679" type="line"/>
      <point x="155" y="41" type="line" smooth="yes"/>
      <point x="154" y="34"/>
      <point x="205" y="31"/>
      <point x="245" y="31" type="curve" smooth="yes"/>
      <point x="276" y="31" type="line"/>
      <point x="269" y="0" type="line"/>
      <point x="-4" y="0" type="line"/>
      <point x="3" y="31" type="line"/>
      <point x="15" y="31" type="line" smooth="yes"/>
      <point x="73" y="31"/>
      <point x="115" y="38"/>
      <point x="119" y="67" type="curve" smooth="yes"/>
      <point x="223" y="643" type="line" smooth="yes"/>
      <point x="228" y="672"/>
      <point x="186" y="679"/>
      <point x="129" y="679" type="curve" smooth="yes"/>
      <point x="116" y="679" type="line"/>
      <point x="123" y="710" type="line"/>
      <point x="395" y="710" type="line" smooth="yes"/>
      <point x="580" y="710"/>
      <point x="657" y="642"/>
      <point x="659" y="548" type="curve" smooth="yes"/>
      <point x="663" y="432"/>
      <point x="582" y="345"/>
      <point x="368" y="345" type="curve" smooth="yes"/>
      <point x="58" y="345" type="line"/>
    </contour>
  </outline>
</glyph>
<glyph name="numero" format="2">
  <advance width="1372"/>
  <unicode hex="2116"/>
  <outline>
    <contour>
      <point x="916" y="226" type="line"/>
      <point x="1300" y="226" type="line"/>
      <point x="1295" y="196" type="line"/>
      <point x="911" y="196" type="line"/>
    </contour>
    <component base="N" xOffset="6"/>
    <component base="ordmasculine" xOffset="830"/>
  </outline>
</glyph>
<glyph name="uni25B4" format="2">
  <advance width="752"/>
  <unicode hex="25B4"/>
  <outline>
    <contour>
      <point x="70" y="91" type="line"/>
      <point x="693" y="91" type="line"/>
      <point x="370" y="464" type="line"/>
    </contour>
  </outline>
</glyph>
<glyph name="blackcircle" format="2">
  <advance width="690"/>
  <outline>
    <contour>
      <point x="352" y="80" type="curve" smooth="yes"/>
      <point x="499" y="80"/>
      <point x="612" y="177"/>
      <point x="608" y="304" type="curve" smooth="yes"/>
      <point x="604" y="431"/>
      <point x="485" y="528"/>
      <point x="338" y="528" type="curve" smooth="yes"/>
      <point x="191" y="528"/>
      <point x="78" y="431"/>
      <point x="82" y="304" type="curve" smooth="yes"/>
      <point x="86" y="177"/>
      <point x="205" y="80"/>
    </contour>
  </outline>
</glyph>
<glyph name="blackleftpointingtriangle" format="2">
  <advance width="668"/>
  <outline>
    <contour>
      <point x="524" y="10" type="line"/>
      <point x="82" y="277" type="line"/>
      <point x="508" y="545" type="line"/>
    </contour>
  </outline>
</glyph>
<glyph name="blacktriangle" format="2">
  <advance width="668"/>
  <outline>
    <contour>
      <point x="159" y="40" type="line"/>
      <point x="586" y="307" type="line"/>
      <point x="143" y="575" type="line"/>
    </contour>
  </outline>
</glyph>
<glyph name="circumflex_acute" format="2">
  <advance width="594"/>
  <anchor x="282" y="558" name="_top"/>
  <outline>
    <contour>
      <point x="506" y="828" type="curve" smooth="yes"/>
      <point x="422" y="707" type="line"/>
      <point x="420" y="693" type="line"/>
      <point x="433" y="693" type="line"/>
      <point x="551" y="797" type="line" smooth="yes"/>
      <point x="567" y="813"/>
      <point x="587" y="830"/>
      <point x="587" y="848" type="curve" smooth="yes"/>
      <point x="586" y="861"/>
      <point x="573" y="871"/>
      <point x="557" y="871" type="curve" smooth="yes"/>
      <point x="535" y="871"/>
      <point x="525" y="855"/>
    </contour>
    <component base="circumflex" xOffset="-6"/>
  </outline>
</glyph>
<glyph name="circumflex_grave.uc" format="2">
  <advance width="594"/>
  <anchor x="286" y="696" name="_top"/>
  <outline>
    <contour>
      <point x="456" y="924" type="line" smooth="yes"/>
      <point x="434" y="963"/>
      <point x="429" y="975"/>
      <point x="408" y="975" type="curve" smooth="yes"/>
      <point x="390" y="975"/>
      <point x="380" y="963"/>
      <point x="380" y="950" type="curve" smooth="yes"/>
      <point x="381" y="937"/>
      <point x="391" y="924"/>
      <point x="409" y="904" type="curve" smooth="yes"/>
      <point x="477" y="835" type="line"/>
      <point x="494" y="835" type="line"/>
      <point x="493" y="849" type="line"/>
    </contour>
    <component base="circumflex.uc" xOffset="6"/>
  </outline>
</glyph>
<glyph name="dblgrave" format="2">
  <advance width="583"/>
  <anchor x="280" y="539" name="_top"/>
  <outline>
    <contour>
      <point x="389" y="707" type="line" smooth="yes"/>
      <point x="373" y="736"/>
      <point x="361" y="754"/>
      <point x="339" y="754" type="curve" smooth="yes"/>
      <point x="321" y="754"/>
      <point x="313" y="744"/>
      <point x="313" y="731" type="curve" smooth="yes"/>
      <point x="314" y="715"/>
      <point x="327" y="697"/>
      <point x="343" y="680" type="curve" smooth="yes"/>
      <point x="440" y="576" type="line"/>
      <point x="457" y="576" type="line"/>
      <point x="454" y="594" type="line"/>
    </contour>
    <contour>
      <point x="240" y="707" type="line" smooth="yes"/>
      <point x="224" y="736"/>
      <point x="212" y="754"/>
      <point x="190" y="754" type="curve" smooth="yes"/>
      <point x="172" y="754"/>
      <point x="164" y="744"/>
      <point x="164" y="731" type="curve" smooth="yes"/>
      <point x="165" y="715"/>
      <point x="179" y="697"/>
      <point x="194" y="680" type="curve" smooth="yes"/>
      <point x="291" y="576" type="line"/>
      <point x="308" y="576" type="line"/>
      <point x="305" y="594" type="line"/>
    </contour>
  </outline>
</glyph>
<glyph name="eight.oldtab" format="2">
  <advance width="652"/>
  <outline>
    <contour>
      <point x="332" y="21" type="curve" smooth="yes"/>
      <point x="204" y="21"/>
      <point x="110" y="90"/>
      <point x="107" y="187" type="curve" smooth="yes"/>
      <point x="107" y="198"/>
      <point x="107" y="208"/>
      <point x="109" y="219" type="curve" smooth="yes"/>
      <point x="127" y="313"/>
      <point x="216" y="361"/>
      <point x="332" y="361" type="curve"/>
      <point x="472" y="361"/>
      <point x="551" y="290"/>
      <point x="554" y="198" type="curve" smooth="yes"/>
      <point x="554" y="186"/>
      <point x="552" y="168"/>
      <point x="547" y="154" type="curve" smooth="yes"/>
      <point x="519" y="68"/>
      <point x="447" y="21"/>
    </contour>
    <contour>
      <point x="397" y="689" type="curve" smooth="yes"/>
      <point x="494" y="689"/>
      <point x="573" y="634"/>
      <point x="575" y="551" type="curve" smooth="yes"/>
      <point x="576" y="541"/>
      <point x="575" y="528"/>
      <point x="572" y="517" type="curve" smooth="yes"/>
      <point x="558" y="433"/>
      <point x="471" y="391"/>
      <point x="380" y="391" type="curve" smooth="yes"/>
      <point x="294" y="391"/>
      <point x="207" y="444"/>
      <point x="205" y="535" type="curve" smooth="yes"/>
      <point x="204" y="544"/>
      <point x="205" y="552"/>
      <point x="207" y="562" type="curve" smooth="yes"/>
      <point x="224" y="647"/>
      <point x="302" y="689"/>
    </contour>
    <contour>
      <point x="415" y="370" type="line"/>
      <point x="534" y="382"/>
      <point x="620" y="455"/>
      <point x="617" y="551" type="curve" smooth="yes"/>
      <point x="614" y="648"/>
      <point x="516" y="720"/>
      <point x="395" y="720" type="curve" smooth="yes"/>
      <point x="253" y="720"/>
      <point x="160" y="637"/>
      <point x="163" y="535" type="curve" smooth="yes"/>
      <point x="165" y="457"/>
      <point x="230" y="401"/>
      <point x="305" y="379" type="curve"/>
      <point x="288" y="390" type="line"/>
      <point x="286" y="380" type="line"/>
      <point x="306" y="386" type="line"/>
      <point x="150" y="377"/>
      <point x="60" y="289"/>
      <point x="63" y="187" type="curve" smooth="yes"/>
      <point x="66" y="74"/>
      <point x="183" y="-10"/>
      <point x="333" y="-10" type="curve" smooth="yes"/>
      <point x="489" y="-10"/>
      <point x="600" y="80"/>
      <point x="597" y="197" type="curve" smooth="yes"/>
      <point x="594" y="278"/>
      <point x="528" y="352"/>
      <point x="417" y="377" type="curve"/>
      <point x="435" y="368" type="line"/>
      <point x="437" y="376" type="line"/>
    </contour>
  </outline>
</glyph>
<glyph name="f_f.alt" format="2">
  <advance width="739"/>
  <outline>
    <contour>
      <point x="409" y="480" type="line"/>
      <point x="752" y="480" type="line"/>
      <point x="756" y="508" type="line"/>
      <point x="412" y="508" type="line"/>
    </contour>
    <contour>
      <point x="53" y="480" type="line"/>
      <point x="499" y="480" type="line"/>
      <point x="502" y="508" type="line"/>
      <point x="56" y="508" type="line"/>
    </contour>
    <contour>
      <point x="82" y="-223" type="line"/>
      <point x="118" y="-223" type="line"/>
      <point x="222" y="579" type="line" smooth="yes"/>
      <point x="234" y="674"/>
      <point x="315" y="700"/>
      <point x="407" y="700" type="curve" smooth="yes"/>
      <point x="482" y="700"/>
      <point x="543" y="682"/>
      <point x="572" y="639" type="curve"/>
      <point x="584" y="663"/>
      <point x="556" y="694"/>
      <point x="546" y="681" type="curve"/>
      <point x="533" y="567" type="line"/>
      <point x="579" y="616" type="line"/>
      <point x="582" y="682" type="line"/>
      <point x="552" y="705"/>
      <point x="502" y="731"/>
      <point x="406" y="731" type="curve" smooth="yes"/>
      <point x="295" y="731"/>
      <point x="190" y="692"/>
      <point x="178" y="579" type="curve" smooth="yes"/>
    </contour>
    <contour>
      <point x="442" y="-193" type="line"/>
      <point x="478" y="-193" type="line"/>
      <point x="581" y="599" type="line" smooth="yes"/>
      <point x="593" y="693"/>
      <point x="656" y="720"/>
      <point x="728" y="720" type="curve" smooth="yes"/>
      <point x="777" y="720"/>
      <point x="821" y="707"/>
      <point x="848" y="681" type="curve"/>
      <point x="857" y="702"/>
      <point x="843" y="703"/>
      <point x="824" y="724" type="curve"/>
      <point x="815" y="637" type="line"/>
      <point x="865" y="637" type="line"/>
      <point x="872" y="714" type="line"/>
      <point x="848" y="730"/>
      <point x="800" y="751"/>
      <point x="726" y="751" type="curve" smooth="yes"/>
      <point x="631" y="751"/>
      <point x="550" y="706"/>
      <point x="537" y="598" type="curve" smooth="yes"/>
    </contour>
  </outline>
</glyph>
<glyph name="f_f_k.alt" format="2">
  <advance width="1282"/>
  <outline>
    <contour>
      <point x="412" y="508" type="line"/>
      <point x="409" y="477" type="line"/>
      <point x="740" y="477" type="line"/>
      <point x="743" y="508" type="line"/>
    </contour>
    <contour>
      <point x="479" y="-193" type="line"/>
      <point x="579" y="585" type="line" smooth="yes"/>
      <point x="592" y="684"/>
      <point x="654" y="721"/>
      <point x="754" y="721" type="curve" smooth="yes"/>
      <point x="834" y="721"/>
      <point x="881" y="704"/>
      <point x="936" y="666" type="curve"/>
      <point x="938" y="700" type="line"/>
      <point x="909" y="725"/>
      <point x="848" y="752"/>
      <point x="753" y="752" type="curve" smooth="yes"/>
      <point x="638" y="752"/>
      <point x="550" y="706"/>
      <point x="535" y="591" type="curve" smooth="yes"/>
      <point x="443" y="-193" type="line"/>
    </contour>
    <contour>
      <point x="833" y="0" type="line"/>
      <point x="964" y="735" type="line"/>
      <point x="825" y="735" type="line"/>
      <point x="914" y="691" type="line"/>
      <point x="792" y="0" type="line"/>
    </contour>
    <contour>
      <point x="1185" y="-7" type="curve" smooth="yes"/>
      <point x="1135" y="-7"/>
      <point x="1106" y="16"/>
      <point x="1057" y="100" type="curve"/>
      <point x="943" y="287" type="line"/>
      <point x="945" y="292" type="line"/>
      <point x="1040" y="364"/>
      <point x="1136" y="436"/>
      <point x="1231" y="508" type="curve"/>
      <point x="1275" y="508" type="line"/>
      <point x="1275" y="498" type="line"/>
      <point x="1176" y="428"/>
      <point x="1078" y="358"/>
      <point x="979" y="288" type="curve"/>
      <point x="973" y="311" type="line"/>
      <point x="1092" y="114" type="line" smooth="yes"/>
      <point x="1131" y="51"/>
      <point x="1157" y="24"/>
      <point x="1188" y="24" type="curve" smooth="yes"/>
      <point x="1216" y="24"/>
      <point x="1248" y="40"/>
      <point x="1251" y="41" type="curve"/>
      <point x="1246" y="13" type="line"/>
      <point x="1235" y="3"/>
      <point x="1214" y="-7"/>
    </contour>
    <contour>
      <point x="56" y="508" type="line"/>
      <point x="53" y="477" type="line"/>
      <point x="499" y="477" type="line"/>
      <point x="502" y="508" type="line"/>
    </contour>
    <contour>
      <point x="582" y="682" type="line"/>
      <point x="552" y="705"/>
      <point x="502" y="731"/>
      <point x="406" y="731" type="curve" smooth="yes"/>
      <point x="295" y="731"/>
      <point x="190" y="692"/>
      <point x="178" y="579" type="curve" smooth="yes"/>
      <point x="82" y="-223" type="line"/>
      <point x="118" y="-223" type="line"/>
      <point x="222" y="579" type="line" smooth="yes"/>
      <point x="234" y="674"/>
      <point x="315" y="700"/>
      <point x="407" y="700" type="curve" smooth="yes"/>
      <point x="482" y="700"/>
      <point x="543" y="682"/>
      <point x="572" y="639" type="curve"/>
      <point x="584" y="663"/>
      <point x="558" y="693"/>
      <point x="547" y="680" type="curve"/>
      <point x="533" y="564" type="line"/>
      <point x="579" y="616" type="line"/>
    </contour>
  </outline>
</glyph>
<glyph name="f_i.alt" format="2">
  <advance width="629"/>
  <outline>
    <contour>
      <point x="404" y="720" type="curve" smooth="yes"/>
      <point x="463" y="720"/>
      <point x="516" y="706"/>
      <point x="547" y="677" type="curve"/>
      <point x="557" y="701"/>
      <point x="541" y="702"/>
      <point x="522" y="721" type="curve"/>
      <point x="511" y="637" type="line"/>
      <point x="561" y="637" type="line"/>
      <point x="571" y="710" type="line"/>
      <point x="544" y="729"/>
      <point x="488" y="751"/>
      <point x="403" y="751" type="curve" smooth="yes"/>
      <point x="288" y="751"/>
      <point x="195" y="708"/>
      <point x="181" y="594" type="curve" smooth="yes"/>
      <point x="82" y="-223" type="line"/>
      <point x="118" y="-223" type="line"/>
      <point x="225" y="595" type="line" smooth="yes"/>
      <point x="237" y="689"/>
      <point x="314" y="720"/>
    </contour>
    <contour>
      <point x="56" y="508" type="line"/>
      <point x="53" y="477" type="line"/>
      <point x="423" y="477" type="line" smooth="yes"/>
      <point x="481" y="477"/>
      <point x="513" y="465"/>
      <point x="508" y="435" type="curve" smooth="yes"/>
      <point x="467" y="203" type="line" smooth="yes"/>
      <point x="456" y="143"/>
      <point x="445" y="91"/>
      <point x="446" y="59" type="curve" smooth="yes"/>
      <point x="447" y="12"/>
      <point x="482" y="-7"/>
      <point x="529" y="-7" type="curve" smooth="yes"/>
      <point x="558" y="-7"/>
      <point x="591" y="4"/>
      <point x="603" y="13" type="curve"/>
      <point x="609" y="42" type="line"/>
      <point x="599" y="40"/>
      <point x="569" y="24"/>
      <point x="529" y="24" type="curve" smooth="yes"/>
      <point x="503" y="24"/>
      <point x="488" y="34"/>
      <point x="487" y="60" type="curve" smooth="yes"/>
      <point x="486" y="87"/>
      <point x="497" y="142"/>
      <point x="505" y="185" type="curve" smooth="yes"/>
      <point x="561" y="508" type="line"/>
    </contour>
  </outline>
</glyph>
<glyph name="horn" format="2">
  <advance width="583"/>
  <anchor x="301" y="444" name="_top"/>
  <outline>
    <contour>
      <point x="174" y="494" type="line"/>
      <point x="404" y="484"/>
      <point x="448" y="556"/>
      <point x="453" y="685" type="curve"/>
      <point x="411" y="685" type="line"/>
      <point x="405" y="555"/>
      <point x="363" y="518"/>
      <point x="153" y="518" type="curve"/>
    </contour>
  </outline>
</glyph>
<glyph name="i.italic" format="2">
  <advance width="372"/>
  <outline>
    <contour>
      <point x="183" y="619" type="curve" smooth="yes"/>
      <point x="223" y="619"/>
      <point x="253" y="642"/>
      <point x="252" y="680" type="curve" smooth="yes"/>
      <point x="251" y="717"/>
      <point x="219" y="740"/>
      <point x="179" y="740" type="curve" smooth="yes"/>
      <point x="138" y="740"/>
      <point x="109" y="717"/>
      <point x="110" y="680" type="curve" smooth="yes"/>
      <point x="111" y="642"/>
      <point x="142" y="619"/>
    </contour>
    <contour>
      <point x="243" y="508" type="line"/>
      <point x="40" y="508" type="line"/>
      <point x="41" y="462" type="line"/>
      <point x="54" y="460" type="line" smooth="yes"/>
      <point x="115" y="451"/>
      <point x="141" y="444"/>
      <point x="142" y="415" type="curve" smooth="yes"/>
      <point x="152" y="81" type="line" smooth="yes"/>
      <point x="152" y="52"/>
      <point x="112" y="45"/>
      <point x="57" y="45" type="curve"/>
      <point x="56" y="45" type="line"/>
      <point x="57" y="0" type="line"/>
      <point x="356" y="0" type="line"/>
      <point x="355" y="45" type="line"/>
      <point x="353" y="45" type="line"/>
      <point x="298" y="45"/>
      <point x="256" y="52"/>
      <point x="256" y="81" type="curve" smooth="yes"/>
    </contour>
  </outline>
</glyph>
<glyph name="one.oldtab" format="2">
  <advance width="652"/>
  <outline>
    <contour>
      <point x="368" y="64" type="curve" smooth="yes"/>
      <point x="453" y="548" type="line"/>
      <point x="429" y="548" type="line"/>
      <point x="380" y="496"/>
      <point x="297" y="474"/>
      <point x="184" y="472" type="curve"/>
      <point x="180" y="441" type="line"/>
      <point x="284" y="439"/>
      <point x="384" y="465"/>
      <point x="414" y="511" type="curve"/>
      <point x="422" y="524"/>
      <point x="428" y="532"/>
      <point x="407" y="510" type="curve"/>
      <point x="328" y="64" type="line" smooth="yes"/>
      <point x="323" y="35"/>
      <point x="270" y="28"/>
      <point x="194" y="28" type="curve" smooth="yes"/>
      <point x="115" y="28" type="line"/>
      <point x="112" y="0" type="line"/>
      <point x="556" y="0" type="line"/>
      <point x="559" y="28" type="line"/>
      <point x="491" y="28" type="line" smooth="yes"/>
      <point x="409" y="28"/>
      <point x="363" y="35"/>
    </contour>
  </outline>
</glyph>
<glyph name="sterling.alt" format="2">
  <advance width="652"/>
  <outline>
    <contour>
      <point x="13" y="0" type="line"/>
      <point x="562" y="0" type="line"/>
      <point x="587" y="170" type="line"/>
      <point x="559" y="170" type="line"/>
      <point x="532" y="74" type="line" smooth="yes"/>
      <point x="521" y="38"/>
      <point x="479" y="31"/>
      <point x="379" y="31" type="curve"/>
      <point x="50" y="31" type="line"/>
      <point x="51" y="24" type="line"/>
      <point x="193" y="64"/>
      <point x="258" y="154"/>
      <point x="255" y="257" type="curve" smooth="yes"/>
      <point x="253" y="341"/>
      <point x="209" y="417"/>
      <point x="207" y="504" type="curve" smooth="yes"/>
      <point x="204" y="608"/>
      <point x="266" y="687"/>
      <point x="413" y="687" type="curve" smooth="yes"/>
      <point x="504" y="687"/>
      <point x="560" y="657"/>
      <point x="591" y="626" type="curve"/>
      <point x="592" y="631"/>
      <point x="575" y="651"/>
      <point x="567" y="665" type="curve"/>
      <point x="551" y="571" type="line"/>
      <point x="603" y="571" type="line"/>
      <point x="616" y="661" type="line"/>
      <point x="582" y="686"/>
      <point x="521" y="718"/>
      <point x="412" y="718" type="curve" smooth="yes"/>
      <point x="239" y="718"/>
      <point x="159" y="623"/>
      <point x="163" y="505" type="curve" smooth="yes"/>
      <point x="166" y="408"/>
      <point x="213" y="324"/>
      <point x="215" y="257" type="curve" smooth="yes"/>
      <point x="218" y="142"/>
      <point x="147" y="76"/>
      <point x="19" y="36" type="curve"/>
    </contour>
    <contour>
      <point x="58" y="353" type="line"/>
      <point x="53" y="322" type="line"/>
      <point x="480" y="322" type="line"/>
      <point x="485" y="353" type="line"/>
    </contour>
  </outline>
</glyph>
<glyph name="thai:baht.proportional" format="2">
  <advance width="701"/>
  <outline>
    <contour>
      <point x="421" y="790" type="line"/>
      <point x="405" y="698" type="line"/>
      <point x="405" y="690" type="line"/>
      <point x="285" y="22" type="line"/>
      <point x="284" y="12" type="line"/>
      <point x="260" y="-120" type="line"/>
      <point x="297" y="-120" type="line"/>
      <point x="321" y="12" type="line"/>
      <point x="323" y="22" type="line"/>
      <point x="442" y="690" type="line"/>
      <point x="441" y="698" type="line"/>
      <point x="458" y="790" type="line"/>
    </contour>
    <contour>
      <point x="374" y="367" type="line"/>
      <point x="560" y="367"/>
      <point x="638" y="448"/>
      <point x="634" y="557" type="curve" smooth="yes"/>
      <point x="632" y="643"/>
      <point x="562" y="710"/>
      <point x="393" y="710" type="curve" smooth="yes"/>
      <point x="106" y="710" type="line"/>
      <point x="101" y="679" type="line"/>
      <point x="123" y="679" type="line" smooth="yes"/>
      <point x="170" y="679"/>
      <point x="215" y="672"/>
      <point x="209" y="643" type="curve" smooth="yes"/>
      <point x="107" y="67" type="line" smooth="yes"/>
      <point x="101" y="38"/>
      <point x="54" y="31"/>
      <point x="7" y="31" type="curve" smooth="yes"/>
      <point x="-15" y="31" type="line"/>
      <point x="-20" y="0" type="line"/>
      <point x="336" y="0" type="line" smooth="yes"/>
      <point x="532" y="0"/>
      <point x="624" y="80"/>
      <point x="620" y="211" type="curve" smooth="yes"/>
      <point x="617" y="303"/>
      <point x="549" y="372"/>
      <point x="390" y="377" type="curve"/>
      <point x="449" y="362" type="line"/>
      <point x="451" y="382" type="line"/>
    </contour>
    <contour>
      <point x="203" y="386" type="line"/>
      <point x="257" y="679" type="line"/>
      <point x="392" y="679" type="line" smooth="yes"/>
      <point x="538" y="679"/>
      <point x="588" y="629"/>
      <point x="590" y="557" type="curve" smooth="yes"/>
      <point x="593" y="473"/>
      <point x="546" y="386"/>
      <point x="368" y="386" type="curve"/>
    </contour>
    <contour>
      <point x="140" y="31" type="line"/>
      <point x="199" y="358" type="line"/>
      <point x="373" y="358" type="line" smooth="yes"/>
      <point x="510" y="358"/>
      <point x="573" y="292"/>
      <point x="576" y="211" type="curve" smooth="yes"/>
      <point x="579" y="102"/>
      <point x="518" y="31"/>
      <point x="348" y="31" type="curve" smooth="yes"/>
    </contour>
  </outline>
</glyph>
<glyph name="whitediamond" format="2">
  <advance width="725"/>
  <outline>
    <contour>
      <point x="673" y="313" type="line"/>
      <point x="361" y="574" type="line"/>
      <point x="64" y="313" type="line"/>
      <point x="377" y="52" type="line"/>
    </contour>
    <contour>
      <point x="581" y="313" type="line"/>
      <point x="374" y="131" type="line"/>
      <point x="157" y="313" type="line"/>
      <point x="364" y="495" type="line"/>
    </contour>
  </outline>
</glyph>
<glyph name="whitedownpointingtriangle" format="2">
  <advance width="751"/>
  <outline>
    <contour>
      <point x="66" y="464" type="line"/>
      <point x="387" y="91" type="line"/>
      <point x="688" y="464" type="line"/>
    </contour>
    <contour>
      <point x="379" y="175" type="line"/>
      <point x="392" y="175" type="line"/>
      <point x="174" y="430" type="line"/>
      <point x="165" y="414" type="line"/>
      <point x="591" y="414" type="line"/>
      <point x="583" y="430" type="line"/>
    </contour>
  </outline>
</glyph>
<glyph name="x.italic" format="2">
  <advance width="670"/>
  <outline>
    <contour>
      <point x="670" y="0" type="line"/>
      <point x="669" y="45" type="line"/>
      <point x="668" y="45" type="line"/>
      <point x="621" y="45"/>
      <point x="601" y="54"/>
      <point x="576" y="79" type="curve" smooth="yes"/>
      <point x="377" y="276" type="line"/>
      <point x="373" y="280" type="line"/>
      <point x="200" y="455" type="line"/>
      <point x="200" y="461"/>
      <point x="254" y="463"/>
      <point x="301" y="463" type="curve" smooth="yes"/>
      <point x="304" y="463" type="line"/>
      <point x="303" y="508" type="line"/>
      <point x="14" y="508" type="line"/>
      <point x="15" y="462" type="line"/>
      <point x="16" y="462" type="line"/>
      <point x="60" y="462"/>
      <point x="80" y="457"/>
      <point x="101" y="436" type="curve" smooth="yes"/>
      <point x="300" y="234" type="line"/>
      <point x="305" y="231" type="line"/>
      <point x="484" y="54" type="line"/>
      <point x="484" y="47"/>
      <point x="428" y="45"/>
      <point x="379" y="45" type="curve" smooth="yes"/>
      <point x="376" y="45" type="line"/>
      <point x="377" y="0" type="line"/>
    </contour>
    <contour>
      <point x="14" y="0" type="line"/>
      <point x="275" y="0" type="line"/>
      <point x="274" y="45" type="line"/>
      <point x="271" y="45" type="line" smooth="yes"/>
      <point x="226" y="45"/>
      <point x="176" y="53"/>
      <point x="176" y="65" type="curve"/>
      <point x="338" y="233" type="line"/>
      <point x="285" y="267" type="line"/>
      <point x="106" y="83" type="line" smooth="yes"/>
      <point x="80" y="56"/>
      <point x="48" y="45"/>
      <point x="14" y="45" type="curve"/>
      <point x="13" y="45" type="line"/>
    </contour>
    <contour>
      <point x="377" y="246" type="line"/>
      <point x="544" y="418" type="line" smooth="yes"/>
      <point x="577" y="452"/>
      <point x="603" y="463"/>
      <point x="643" y="463" type="curve"/>
      <point x="644" y="463" type="line"/>
      <point x="643" y="508" type="line"/>
      <point x="383" y="508" type="line"/>
      <point x="384" y="463" type="line"/>
      <point x="388" y="463" type="line" smooth="yes"/>
      <point x="431" y="463"/>
      <point x="482" y="455"/>
      <point x="482" y="443" type="curve"/>
      <point x="329" y="283" type="line"/>
    </contour>
  </outline>
</glyph>
